[Header]
FileType HTR
DataType HTRS
FileVersion 1
NumSegments 22
NumFrames 4
DataFrameRate 24
EulerRotationOrder ZYX
CalibrationUnits mm
RotationUnits Degrees
GlobalAxisofGravity Y
BoneLengthAxis Y
ScaleFactor 1.0
[SegmentNames&Hierarchy]
reference	GLOBAL
Hips	reference
Spine	Hips
Spine1	Spine
Neck	Spine1
Head	Neck
LeftShoulder	Spine1
LeftArm	LeftShoulder
LeftForeArm	LeftArm
LeftHand	LeftForeArm
RightShoulder	Spine1
RightArm	RightShoulder
RightForeArm	RightArm
RightHand	RightForeArm
LeftUpLeg	Hips
LeftLeg	LeftUpLeg
LeftFoot	LeftLeg
LeftToeBase	LeftFoot
RightUpLeg	Hips
RightLeg	RightUpLeg
RightFoot	RightLeg
RightToeBase	RightFoot
[BasePosition]
reference	0	0	0	0	0	0	1
Hips	0	0	0	0	0	0	1
Spine	0	0	0	-0	-90	0	1
Spine1	0	0	0	0	0	0	1
Neck	0	0	0	82.64767223	-82.64767223	-90	1
Head	0	0	0	-0	-90	0	1
LeftShoulder	0	0	0	0	0	0	1
LeftArm	0	0	0	0	0	0	1
LeftForeArm	0	0	0	0	0	0	1
LeftHand	0	0	0	0	0	0	1
RightShoulder	0	0	0	0	-0	180	1
RightArm	0	0	0	0	-0	180	1
RightForeArm	0	0	0	0	-0	180	1
RightHand	0	0	0	0	-0	180	1
LeftUpLeg	0	0	0	-0	90	0	1
LeftLeg	0	0	0	-0	90	0	1
LeftFoot	0	0	0	-23.42853957	23.42853957	-90	1
LeftToeBase	0	0	0	0	-0	-90	1
RightUpLeg	0	0	0	-0	90	0	1
RightLeg	0	0	0	-0	90	0	1
RightFoot	0	0	0	-23.42853957	23.42853957	-90	1
RightToeBase	0	0	0	0	-0	-90	1
[reference]
29	0	0	0	0	-0	0	1.0
30	0	0	0	0	-0	0	1.0
31	0	0	0	0	-0	0	1.0
32	0	0	0	0	-0	0	1.0
[Hips]
29	0.5636306405	1.10281992	8.720409393	6.926805019	24.12158203	-39.52641678	1.0
30	0.5363978744	1.050348997	8.650654793	9.051320076	20.78848457	-35.75395584	1.0
31	0.4854099751	1.03619194	8.599633217	10.57572556	18.35797882	-32.93660736	1.0
32	0.3401431143	0.9289495945	8.463200569	9.691163063	12.78742886	-32.62435532	1.0
[Spine]
29	0	0	0.7457100153	260.5112305	80.66564941	270.927002	1.0
30	0	0	0.7457100153	257.1895142	81.42281342	269.8703308	1.0
31	0	0	0.7457100153	250.7772827	81.39746094	264.8805237	1.0
32	0	0	0.7457100153	217.8756714	85.52000427	233.5808411	1.0
[Spine1]
29	0	0	2.140589952	8.968871117	-6.669996262	-3.676605463	1.0
30	0	0	2.140589952	8.024659157	-5.546452522	-3.279721737	1.0
31	0	0	2.140589952	7.516607285	-4.918199062	-3.169186592	1.0
32	0	0	2.140589952	6.422860146	-0.8093088269	-1.183189034	1.0
[Neck]
29	0	0	2.32246995	-26.5982132	65.31158447	-38.58889008	1.0
30	0	0	2.32246995	-33.70632553	65.88494873	-45.26982498	1.0
31	0	0	2.32246995	-35.45013428	64.15699768	-45.12116241	1.0
32	0	0	2.32246995	-44.35644531	65.72476196	-54.78884125	1.0
[Head]
29	0	-0.1818799973	1.409579992	74.49462128	109.3764877	90.08818817	1.0
30	0	-0.1818799973	1.409579992	79.15519714	111.6835175	93.82923889	1.0
31	0	-0.1818799973	1.409579992	70.77696991	113.1705017	82.92900848	1.0
32	0	-0.1818799973	1.409579992	84.01623535	115.3106384	96.2746048	1.0
[LeftShoulder]
29	0.3668199778	0.02662999928	1.946700096	-8.629865646	-10.21628475	-15.21714687	1.0
30	0.3668199778	0.02662999928	1.946700096	-9.463395119	-9.362844467	-14.10895729	1.0
31	0.3668199778	0.02662999928	1.946700096	-9.663228989	-8.549720764	-14.04193306	1.0
32	0.3668199778	0.02662999928	1.946700096	-9.022936821	-8.136167526	-12.95762634	1.0
[LeftArm]
29	1.140689969	0	0	15.02733803	66.95554352	-44.11936569	1.0
30	1.140689969	0	0	20.34802628	69.25189972	-37.65952301	1.0
31	1.140689969	0	0	25.84686279	70.4066925	-31.12462616	1.0
32	1.140689969	0	0	38.63843155	73.96955872	-16.08473206	1.0
[LeftForeArm]
29	2.749800205	0	0	7.152287483	3.066594362	-96.42368317	1.0
30	2.749800205	0	0	5.290847301	6.301246166	-93.52080536	1.0
31	2.749800205	0	0	4.179586887	8.290259361	-91.30794525	1.0
32	2.749800205	0	0	0.1053953767	12.79498291	-78.6999054	1.0
[LeftHand]
29	2.295179844	0	0	11.48645687	-7.276644707	-14.06922054	1.0
30	2.295179844	0	0	12.79270649	-6.21226263	-14.56998539	1.0
31	2.295179844	0	0	13.60066414	-6.640563011	-14.97756577	1.0
32	2.295179844	0	0	10.9782753	-3.853322744	-13.56906509	1.0
[RightShoulder]
29	-0.3601199985	0.02662999928	1.946700096	-2.801581144	1.766244769	-178.808548	1.0
30	-0.3601199985	0.02662999928	1.946700096	-3.685665369	2.768037319	-179.6655273	1.0
31	-0.3601199985	0.02662999928	1.946700096	-3.725596905	2.882143259	-179.9961853	1.0
32	-0.3601199985	0.02662999928	1.946700096	-4.624396324	1.861264348	-178.9929047	1.0
[RightArm]
29	-1.140689969	0	0	-135.3074341	-128.8849487	1.32144165	1.0
30	-1.140689969	0	0	-133.1107635	-125.2439423	-1.060715079	1.0
31	-1.140689969	0	0	-132.106781	-122.70047	-2.05794239	1.0
32	-1.140689969	0	0	-125.3370285	-115.7733917	-7.775202274	1.0
[RightForeArm]
29	-2.749800205	0	0	22.64787483	-6.516577244	-77.15931702	1.0
30	-2.749800205	0	0	20.93725967	-8.282241821	-82.3969574	1.0
31	-2.749800205	0	0	21.02629662	-8.855765343	-86.93652344	1.0
32	-2.749800205	0	0	17.10376549	-7.882971764	-102.7978516	1.0
[RightHand]
29	-2.295179844	0	0	36.37644577	26.50111771	-156.6930542	1.0
30	-2.295179844	0	0	35.96705246	25.69641304	-155.9455566	1.0
31	-2.295179844	0	0	36.37406921	26.46877098	-154.6522064	1.0
32	-2.295179844	0	0	28.64772415	24.37828827	-156.3405304	1.0
[LeftUpLeg]
29	0.9094099998	0	0	220.5608826	-61.58676147	-231.7057953	1.0
30	0.9094099998	0	0	227.2659454	-62.37321854	-241.714859	1.0
31	0.9094099998	0	0	234.6164703	-61.83827209	-251.6976166	1.0
32	0.9094099998	0	0	245.64505	-61.53477478	-261.7428894	1.0
[LeftLeg]
29	0	0	-4.498080254	-51.5075531	-73.48238373	58.05998611	1.0
30	0	0	-4.498080254	-42.34228134	-77.48889923	53.13388062	1.0
31	0	0	-4.498080254	-37.93034744	-81.44139099	51.59959793	1.0
32	0	0	-4.498080254	-3.456885576	-84.66696167	21.70218468	1.0
[LeftFoot]
29	0	0	-3.729400158	-57.09703445	-23.1957283	119.4698868	1.0
30	0	0	-3.729400158	-58.40042877	-21.92829514	116.3188782	1.0
31	0	0	-3.729400158	-58.62125397	-22.39981461	113.4899139	1.0
32	0	0	-3.729400158	-61.33600616	-20.67155457	112.2202072	1.0
[LeftToeBase]
29	0	-1.364109993	-0.5911099911	-9.999999975e-007	0	0	1.0
30	0	-1.364109993	-0.5911099911	-9.999999975e-007	0	0	1.0
31	0	-1.364109993	-0.5911099911	-9.999999975e-007	0	0	1.0
32	0	-1.364109993	-0.5911099911	-9.999999975e-007	0	0	1.0
[RightUpLeg]
29	-0.9094099998	0	0	117.3179703	-74.21438599	-163.8400574	1.0
30	-0.9094099998	0	0	119.6115723	-75.40208435	-153.0548859	1.0
31	-0.9094099998	0	0	117.0609894	-75.43570709	-142.6727295	1.0
32	-0.9094099998	0	0	110.5085297	-74.72523499	-116.7836456	1.0
[RightLeg]
29	0	0	-4.498080254	-120.9398193	-117.1384354	202.8993073	1.0
30	0	0	-4.498080254	-126.2783585	-112.7105637	186.1529846	1.0
31	0	0	-4.498080254	-126.0733185	-109.4754486	171.0712738	1.0
32	0	0	-4.498080254	-93.01856995	-106.3457794	104.638649	1.0
[RightFoot]
29	0	0	-3.729400158	-37.78980255	-33.11060715	94.14832306	1.0
30	0	0	-3.729400158	-40.68044281	-39.50776291	103.853447	1.0
31	0	0	-3.729400158	-43.45350647	-39.75408554	106.9086914	1.0
32	0	0	-3.729400158	-37.66348267	-35.19507599	100.2758713	1.0
[RightToeBase]
29	0	-1.364109993	-0.5911099911	3.000000106e-006	9.999999975e-007	9.999999975e-007	1.0
30	0	-1.364109993	-0.5911099911	3.000000106e-006	9.999999975e-007	9.999999975e-007	1.0
31	0	-1.364109993	-0.5911099911	3.000000106e-006	9.999999975e-007	9.999999975e-007	1.0
32	0	-1.364109993	-0.5911099911	3.000000106e-006	9.999999975e-007	9.999999975e-007	1.0
[EndOfFile]
